<?xml version="1.0" encoding="UTF-8" standalone="no"?>
<!-- Created with Inkscape (http://www.inkscape.org/) -->

<svg
   width="194mm"
   height="204mm"
   viewBox="0 0 194 204"
   version="1.1"
   id="svg671"
   inkscape:version="1.2.2 (b0a8486541, 2022-12-01)"
   sodipodi:docname="sweettea.svg"
   xmlns:inkscape="http://www.inkscape.org/namespaces/inkscape"
   xmlns:sodipodi="http://sodipodi.sourceforge.net/DTD/sodipodi-0.dtd"
   xmlns="http://www.w3.org/2000/svg"
   xmlns:svg="http://www.w3.org/2000/svg">
  <sodipodi:namedview
     id="namedview673"
     pagecolor="#ffffff"
     bordercolor="#000000"
     borderopacity="0.25"
     inkscape:showpageshadow="2"
     inkscape:pageopacity="0.0"
     inkscape:pagecheckerboard="0"
     inkscape:deskcolor="#d1d1d1"
     inkscape:document-units="mm"
     showgrid="false"
     inkscape:zoom="1.0610557"
     inkscape:cx="419.86485"
     inkscape:cy="395.83218"
     inkscape:window-width="1920"
     inkscape:window-height="1011"
     inkscape:window-x="0"
     inkscape:window-y="0"
     inkscape:window-maximized="1"
     inkscape:current-layer="layer1" />
  <defs
     id="defs668">
    <clipPath
       clipPathUnits="userSpaceOnUse"
       id="clipPath358">
      <path
         d="m 1065.762,1266.303 c -0.456,-0.039 -6.311,-0.518 -10.827,-1.012 v 0 c -0.736,-0.143 -1.616,-0.313 -2.651,-0.511 v 0 c -3.552,-0.733 -7.096,-1.528 -10.63,-2.389 v 0 c -12.227,-2.966 -24.337,-6.68 -36.316,-10.972 v 0 c -23.992,-8.596 -47.466,-19.404 -71.588,-27.428 v 0 c -47.721,-15.873 -99.862,-22.01 -146.957,0.483 v 0 c -0.853,0.408 -1.692,0.839 -2.539,1.258 v 0 c 1.263,-35.841 3.159,-71.259 3.159,-102.302 v 0 c 0,-72.47 55.351,-174.334 55.351,-174.334 v 0 c 0,0 -12.345,-3.548 -12.345,-21.792 v 0 c 0,-18.244 28.272,-58.787 131.407,-58.787 v 0 c 103.135,0 123.045,49.665 123.045,60.814 v 0 c 0,11.15 -10.354,21.793 -10.354,21.793 v 0 c 63.042,115.115 56.967,254.231 56.201,303.926 v 0 c -0.926,0.806 -1.839,1.633 -2.78,2.41 v 0 c -2.176,1.824 -4.406,3.528 -6.668,5.17 v 0 c -3.405,1.089 -7.844,2.452 -9.332,2.907 v 0 c -2.867,0.352 -5.736,0.689 -8.612,0.921 v 0 c -5.881,0.471 -11.775,0.7 -17.668,0.7 v 0 c -6.638,0 -13.274,-0.291 -19.896,-0.855"
         id="path356" />
    </clipPath>
    <clipPath
       clipPathUnits="userSpaceOnUse"
       id="clipPath366">
      <path
         d="M 715.302,1089.48 H 1161.31 V 837.597 H 715.302 Z"
         id="path364" />
    </clipPath>
    <clipPath
       clipPathUnits="userSpaceOnUse"
       id="clipPath382">
      <path
         d="M 687.633,1352.49 H 1228.66 V 1074.08 H 687.633 Z"
         id="path380" />
    </clipPath>
    <clipPath
       clipPathUnits="userSpaceOnUse"
       id="clipPath398">
      <path
         d="M 702.309,1150.22 H 1179.09 V 896.383 H 702.309 Z"
         id="path396" />
    </clipPath>
    <clipPath
       clipPathUnits="userSpaceOnUse"
       id="clipPath414">
      <path
         d="M 681.308,1267.75 H 1195.78 V 1035.89 H 681.308 Z"
         id="path412" />
    </clipPath>
    <clipPath
       clipPathUnits="userSpaceOnUse"
       id="clipPath430">
      <path
         d="M 0,2000 H 2000 V 0 H 0 Z"
         id="path428" />
    </clipPath>
  </defs>
  <g
     inkscape:label="Layer 1"
     inkscape:groupmode="layer"
     id="layer1">
    <g
       id="g352"
       style="display:inline"
       transform="matrix(0.35277777,0,0,-0.35277777,-256.0945,507.95719)">
      <g
         id="g354"
         clip-path="url(#clipPath358)">
        <g
           id="g360">
          <g
             id="g362" />
          <g
             id="g374">
            <g
               clip-path="url(#clipPath366)"
               id="g372">
              <g
                 transform="translate(759.6737,837.597)"
                 id="g370">
                <path
                   d="m 0,0 h 396.945 l 4.688,33.503 -446.004,218.384 z"
                   style="fill:#7c1109;fill-opacity:1;fill-rule:nonzero;stroke:none"
                   id="path368" />
              </g>
            </g>
          </g>
        </g>
        <g
           id="g376">
          <g
             id="g378" />
          <g
             id="g390">
            <g
               clip-path="url(#clipPath382)"
               id="g388">
              <g
                 transform="translate(1228.66,1352.4896)"
                 id="g386">
                <path
                   d="m 0,0 h -541.026 l 6.56,-46.895 495.513,-231.512 z"
                   style="fill:#e0d03d;fill-opacity:1;fill-rule:nonzero;stroke:none"
                   id="path384" />
              </g>
            </g>
          </g>
        </g>
        <g
           id="g392">
          <g
             id="g394" />
          <g
             id="g406">
            <g
               clip-path="url(#clipPath398)"
               id="g404">
              <g
                 transform="translate(702.3085,1150.2172)"
                 id="g402">
                <path
                   d="m 0,0 26.896,-125.715 442,-128.12 7.888,115.633 z"
                   style="fill:#d14637;fill-opacity:1;fill-rule:nonzero;stroke:none"
                   id="path400" />
              </g>
            </g>
          </g>
        </g>
        <g
           id="g408">
          <g
             id="g410" />
          <g
             id="g422">
            <g
               clip-path="url(#clipPath414)"
               id="g420">
              <g
                 transform="translate(1195.7753,1136.7162)"
                 id="g418">
                <path
                   d="m 0,0 -514.468,131.035 23.65,-161.115 477.588,-70.746 z"
                   style="fill:#db8f4f;fill-opacity:1;fill-rule:nonzero;stroke:none"
                   id="path416" />
              </g>
            </g>
          </g>
        </g>
      </g>
    </g>
    <g
       id="g424"
       style="display:inline"
       transform="matrix(0.35277777,0,0,-0.35277777,-256.0945,507.95719)">
      <g
         id="g426"
         clip-path="url(#clipPath430)">
        <g
           id="g432"
           transform="translate(1263.7098,1230.517)">
          <path
             d="m 0,0 c -1.92,-5.01 -3.479,-13.899 -1.16,-18.54 2.32,-4.64 0.4,-10.05 -1.529,-13.14 -1.921,-3.11 -5.411,-12.37 -5.411,-15.09 0,-2.69 1.53,-12.37 -4.27,-18.94 -5.779,-6.56 -7.33,-14.66 -7.33,-18.54 0,-3.85 -0.85,-9.29 -5.27,-11.58 -4.39,-2.319 -11.35,-8.52 -12.11,-14.69 -0.8,-6.2 -1.93,-11.61 -6.569,-13.93 -4.651,-2.32 -15.461,-9.65 -16.621,-16.22 -1.16,-6.57 -8.47,-8.49 -10.81,-9.29 -2.33,-0.76 -12.01,-11.21 -15.49,-16.979 -2.579,-4.311 -30.94,-21.411 -56,-33.271 -8.409,-3.99 -16.45,-7.36 -23.01,-9.45 0.42,1.33 0.851,2.66 1.27,3.99 l 1.871,5.941 1.559,6.059 c 8.38,31.43 12.06,64.1 12.82,96.96 1.64,-5.57 6.46,-17.92 18.01,-22.729 3.45,-1.441 7.47,-2.21 12.2,-1.92 25.5,1.549 69.951,39.829 80.371,114.789 10.449,74.97 -61.071,71.49 -73.801,61.83 -3.909,-2.97 -9.77,-8.77 -16,-15.4 -3.31,-3.509 -6.77,-7.27 -10.05,-10.98 -0.03,0.34 -0.09,0.7 -0.14,1.07 -0.62,7.361 -0.6,14.611 -0.54,22 v 2.92 c 0.281,1.78 0.571,3.56 0.79,5.35 1.84,13.051 3.97,25.98 3.8,39.18 -0.03,1.55 -0.12,3.14 -0.26,4.701 3,-0.171 5.92,-0.321 8.75,-0.431 19.42,-0.73 34.031,-0.14 42.63,-3.569 11.58,-4.641 15.071,-8.881 23.19,-8.881 8.1,0 16.62,-5.04 20.47,-10.82 3.88,-5.799 17.78,-7.73 19.701,-13.16 1.96,-5.41 8.519,-17.389 12.009,-19.71 C -3.479,45.21 -1.16,39.04 -2.689,34 -4.25,28.99 0,20.87 3.48,15.061 6.97,9.29 1.95,5.04 0,0"
             style="fill:#000000;fill-opacity:1;fill-rule:nonzero;stroke:none"
             id="path434" />
        </g>
        <g
           id="g436"
           transform="translate(1142.9999,1384.4076)">
          <path
             d="m 0,0 -0.03,-0.851 c -0.03,-1.129 -0.06,-2.32 -0.11,-3.389 -0.2,-4.5 -0.57,-8.861 -0.97,-13.2 l -2.52,-25.621 c -0.22,-2.4 -0.42,-4.78 -0.59,-7.16 -0.14,-1.809 -0.28,-3.59 -0.37,-5.349 l -0.11,-3.031 -0.029,-2.939 c 0,-2.32 -0.031,-4.561 -0.111,-6.71 l -0.91,-25.851 -0.82,-19.929 -1.3,-31.481 c -0.65,-17.13 -1.3,-34.279 -1.47,-51.239 -0.15,-8.49 0.111,-16.681 0.39,-25.391 0.261,-8.639 0.4,-17.33 0.37,-26.049 -0.03,-8.38 -0.28,-16.76 -0.76,-25.14 -0.51,-9.11 -1.33,-18.2 -2.44,-27.261 -2.18,-17.439 -5.04,-34.819 -9.68,-51.889 l -0.4,-1.621 -1.21,-4.78 -1.99,-6.34 c -1.33,-4.219 -2.52,-8.469 -3.99,-12.66 -3.2,-8.239 -5.94,-16.67 -9.85,-24.659 -5.8,-13.87 -13.36,-26.921 -21.46,-39.631 0.82,-0.989 1.61,-2.01 2.35,-3.14 1.25,-1.9 2.44,-3.96 3.4,-6.4 0.9,-2.489 1.61,-5.319 1.58,-8.579 -0.22,-3.881 -1.13,-6.231 -2.01,-8.49 l -1.5,-3.141 c -0.53,-0.989 -1.1,-1.84 -1.7,-2.779 -2.29,-3.62 -4.98,-6.681 -7.81,-9.42 -1.389,-1.481 -2.889,-2.67 -4.389,-3.88 -1.5,-1.221 -2.971,-2.49 -4.561,-3.48 l -4.72,-3.151 c -1.59,-0.93 -3.23,-1.779 -4.87,-2.689 -6.51,-3.54 -13.25,-6.17 -20.05,-8.401 -27.29,-8.609 -55.17,-10.509 -82.49,-10.17 -27.29,0.451 -54.95,2.75 -82.01,11.18 l -10.08,3.631 c -3.32,1.529 -6.66,2.83 -9.88,4.58 -6.51,3.34 -12.86,7.529 -18.6,13.079 -1.36,1.53 -2.86,2.78 -4.08,4.591 -1.27,1.699 -2.55,3.369 -3.57,5.489 -1.129,1.901 -1.95,4.33 -2.629,6.74 -0.311,1.3 -0.421,2.8 -0.571,4.191 -0.139,1.439 0.06,2.41 0.12,3.62 0.34,4.67 2.21,9.88 5.57,13.93 0.881,1.049 1.85,2.04 2.84,2.92 -13.28,21 -24.72,42.719 -34.03,65.87 -5.16,13 -9.66,26.389 -12.37,40.49 -0.6,3.54 -1.05,7.13 -1.59,10.699 -0.45,3.57 -0.42,7.301 -0.65,10.931 l -0.2,20.38 c -0.59,27.09 -2.07,54.41 -2.38,81.87 -0.11,13.729 0.06,27.519 0.91,41.33 0.88,13.79 2.49,27.63 5.601,41.279 l 1.529,6.62 5.41,-4.019 c 1.16,-0.84 2.86,-1.861 4.36,-2.771 1.61,-0.88 3.23,-1.779 4.9,-2.599 l 5.04,-2.411 5.18,-2.24 c 6.96,-2.8 14.121,-5.26 21.43,-7.33 14.58,-4.22 29.58,-7.33 44.73,-9.51 7.53,-1.28 15.171,-1.929 22.79,-2.799 7.61,-0.8 15.28,-1.161 22.93,-1.821 l 23.04,-0.899 23.08,-0.12 -23.08,-1.21 -23.13,-0.431 c -7.7,0.2 -15.43,0.261 -23.13,0.651 -7.7,0.509 -15.42,0.83 -23.12,1.759 -15.41,1.441 -30.78,3.88 -45.919,7.641 -7.561,1.84 -15.061,4.08 -22.481,6.739 l -5.519,2.101 c -1.841,0.76 -3.651,1.58 -5.471,2.349 -1.69,0.821 -3.34,1.58 -4.98,2.43 -1.73,-11.18 -2.49,-22.529 -2.89,-33.92 -0.42,-13.439 -0.19,-26.97 0.37,-40.529 1.05,-27.101 3.6,-54.25 4.73,-81.74 l 0.65,-20.521 c 0.28,-3.17 0.31,-6.309 0.79,-9.479 0.54,-3.17 1.02,-6.35 1.62,-9.521 2.74,-12.68 7.24,-25.189 12.4,-37.42 5.21,-12.199 11.21,-24.18 17.75,-35.87 6.51,-11.659 13.56,-23.3 20.95,-34.109 l -5.18,-13.311 c 0.36,0.091 -0.029,-0.029 -0.12,-0.08 l -0.56,-0.229 c -0.37,-0.17 -0.74,-0.401 -1.08,-0.621 -0.68,-0.46 -1.24,-0.99 -1.729,-1.559 -0.851,-1.13 -1.441,-2.49 -1.551,-4.5 0.03,-0.431 -0.12,-1.16 -0.03,-1.36 0.11,-0.26 0.081,-0.481 0.14,-0.791 0.34,-0.769 0.45,-1.559 1.1,-2.519 0.4,-0.94 1.22,-1.9 1.96,-2.86 0.62,-1.021 1.75,-1.901 2.631,-2.861 3.939,-3.71 8.859,-6.989 14.299,-9.679 2.661,-1.39 5.6,-2.47 8.38,-3.741 l 8.86,-3.059 c 12.06,-3.71 24.83,-5.83 37.68,-7.33 l 9.68,-0.991 9.74,-0.599 c 6.51,-0.511 13.08,-0.481 19.62,-0.62 l 4.9,-0.08 4.89,0.139 9.77,0.25 c 3.26,0 6.45,0.46 9.71,0.63 3.23,0.311 6.48,0.42 9.65,0.841 12.8,1.5 25.4,3.909 37.29,7.76 5.89,1.979 11.63,4.25 16.87,7.16 1.3,0.71 2.63,1.42 3.911,2.159 l 3.619,2.46 c 1.27,0.761 2.32,1.7 3.4,2.601 1.1,0.91 2.231,1.759 3.11,2.78 1.98,1.89 3.71,3.93 4.98,5.97 0.29,0.509 0.68,1.019 0.94,1.5 0.201,0.479 0.42,0.939 0.65,1.42 0.27,0.639 0.39,1.299 0.45,1.299 v 0.031 c -0.03,0.2 -0.08,0.559 -0.28,1.04 -0.28,0.679 -0.74,1.559 -1.33,2.439 -0.62,0.91 -1.39,1.87 -2.24,2.801 -0.42,0.449 -0.87,0.909 -1.33,1.359 -0.39,0.401 -1.02,0.931 -1.19,1.08 l -6.9,5.771 5.01,7.62 c 9.06,13.779 17.78,27.909 24.29,43.199 3.68,7.441 6.281,15.37 9.34,23.101 0.93,2.599 1.731,5.239 2.55,7.899 0.42,1.33 0.85,2.66 1.27,3.99 l 1.871,5.941 1.559,6.059 c 8.38,31.43 12.06,64.1 12.82,96.96 0.03,0.88 0.03,1.76 0.06,2.64 0.11,8.431 0.11,16.87 -0.03,25.421 -0.17,8.439 -0.31,17.439 -0.06,26.1 0.43,17.349 1.3,34.509 2.21,51.69 l 2.89,51.47 1.47,25.59 c 0.11,2.16 0.2,4.19 0.25,6.179 l 0.09,3.481 0.23,3.42 c 0.31,4.479 0.79,8.809 1.301,13.139 l 3.079,25.54 c 0.49,4.21 0.91,8.401 1.19,12.51 0.06,0.731 0.09,1.441 0.12,2.15 -0.46,0.281 -0.99,0.621 -1.65,0.911 -0.1,0.049 -0.2,0.099 -0.31,0.139 -0.19,0.101 -0.39,0.191 -0.6,0.281 -2.9,1.28 -6.46,2.339 -9.96,3.259 -3.96,1.01 -8.04,1.891 -12.14,2.691 -8.24,1.55 -16.62,2.91 -25.06,4.069 -16.84,2.32 -33.85,4.11 -50.93,5.78 l -25.62,2.401 c -8.55,0.849 -17.04,1.389 -25.869,2.809 -17.271,2.941 -33.891,6.79 -50.731,10.241 -16.79,3.509 -33.58,6.86 -50.42,9.799 -4.22,0.71 -8.44,1.441 -12.69,2.04 -4.21,0.68 -8.43,1.241 -12.68,1.72 -8.46,1.051 -16.979,1.761 -25.45,1.7 -8.46,0.17 -16.81,-1.549 -24.88,-4.299 -8.1,-2.77 -15.83,-6.51 -23.25,-10.84 7.14,4.75 14.7,8.939 22.71,12.229 7.98,3.25 16.59,5.551 25.31,5.891 8.69,0.51 17.35,0.189 25.96,-0.46 4.331,-0.28 8.6,-0.651 12.91,-1.13 4.3,-0.4 8.58,-0.931 12.85,-1.44 17.1,-2.1 34.09,-4.871 51.04,-7.701 16.93,-2.78 33.95,-6.009 50.62,-8.16 8.21,-0.96 16.87,-1.33 25.4,-1.889 l 25.73,-1.621 c 17.15,-1.129 34.34,-2.399 51.58,-4.24 8.61,-0.939 17.241,-1.96 25.9,-3.43 4.33,-0.74 8.67,-1.58 13.051,-2.599 4.419,-1.08 8.809,-2.21 13.559,-4.311 2.38,-1.21 4.99,-2.149 8.04,-5.939 C -1.729,6.029 -1.36,5.439 -1.05,4.84 -0.74,4.079 -0.46,3.319 -0.26,2.52 -0.09,1.699 0,0.6 0,0"
             style="fill:#000000;fill-opacity:1;fill-rule:nonzero;stroke:none"
             id="path438" />
        </g>
        <g
           id="g440"
           transform="translate(1125.369,1387.0726)">
          <path
             d="m 0,0 c 1.103,-1.8 1.681,-4.203 0.862,-6.436 -0.789,-2.209 -2.418,-3.972 -4.175,-5.379 -3.545,-2.807 -7.681,-4.615 -11.77,-6.148 -8.228,-3.067 -16.752,-5.059 -25.263,-6.642 -17.032,-3.282 -34.232,-4.999 -51.383,-6.457 -8.6,-0.766 -17.147,-1.127 -25.76,-1.628 -4.276,-0.28 -8.782,-0.261 -13.354,-0.251 -2.242,0.05 -4.759,-0.002 -6.785,0.15 -2.107,0.14 -4.129,0.221 -6.301,0.409 -17.814,1.46 -34.967,4.659 -51.875,8.398 -16.942,3.705 -33.387,8.522 -49.973,13.101 -16.649,4.535 -32.972,9.433 -49.293,14.303 -8.088,2.401 -16.121,4.657 -24.037,6.342 -7.194,1.579 -14.677,1.8 -22.078,0.634 -7.218,-1.081 -14.369,-3.673 -21.019,-7.44 -6.588,-3.713 -12.742,-8.565 -18.102,-14.291 l 1.626,3.076 c -0.076,0.113 0.308,0.456 -0.326,2.609 -0.181,0.536 -0.48,1.058 -0.848,1.481 l -0.271,0.288 -0.055,0.074 -0.125,0.14 -0.3,0.217 0.067,-0.053 0.373,-0.263 0.718,-0.406 1.697,-0.912 c 2.472,-1.288 5.174,-2.792 7.724,-4.451 5.147,-3.335 9.819,-7.47 13.697,-12.11 3.914,-4.649 7.084,-9.615 9.794,-14.934 2.773,-5.401 4.592,-11.196 5.58,-16.948 2.006,-11.557 1.621,-22.72 1.432,-33.662 -0.215,-10.947 -0.025,-21.814 1.718,-32.726 -1.873,5.183 -3.346,10.55 -4.49,15.992 -1.078,5.446 -1.881,10.959 -2.575,16.442 -1.432,10.935 -2.246,21.89 -5.329,31.752 -1.508,4.92 -3.379,9.595 -6.082,13.723 -2.686,4.228 -5.872,8.298 -9.39,11.731 -3.55,3.449 -7.463,6.318 -11.675,8.713 -2.144,1.188 -4.317,2.221 -6.795,3.304 l -1.997,0.904 -1.114,0.536 c -0.393,0.194 -0.938,0.521 -1.394,0.786 -0.276,0.178 -0.393,0.206 -0.794,0.509 -0.371,0.281 -0.734,0.576 -1.085,0.884 l -0.517,0.472 -0.25,0.242 -0.407,0.506 c -0.541,0.717 -1.016,1.535 -1.371,2.367 -0.707,1.7 -0.701,3.013 -0.69,4.068 0.043,1.05 0.199,1.86 0.369,2.568 l 0.368,1.545 1.258,1.532 c 5.872,7.151 12.787,13.639 20.845,18.764 7.987,5.035 16.964,8.944 26.609,10.791 9.431,1.829 19.338,1.931 28.915,0.156 8.847,-1.691 17.334,-3.903 25.683,-6.188 l 49.275,-14.093 c 16.359,-4.558 32.632,-9.751 49.008,-13.775 8.167,-2.109 16.346,-4.037 24.542,-5.76 4.076,-0.873 8.245,-1.712 12.218,-2.423 l 12.192,-1.924 c 2.071,-0.326 4.312,-0.572 6.458,-0.863 2.223,-0.315 3.992,-0.337 6.015,-0.53 3.97,-0.266 8.012,-0.589 12.282,-0.599 l 25.512,-0.272 c 17.01,-0.181 33.983,0.082 50.881,1.084 8.432,0.613 16.839,1.387 25.04,3.097 4.087,0.882 8.091,2.023 11.699,3.943 1.758,0.971 3.388,2.243 4.362,3.965 C 0.753,-4.246 0.754,-2.016 0,0"
             style="fill:#000000;fill-opacity:1;fill-rule:nonzero;stroke:none"
             id="path442" />
        </g>
      </g>
    </g>
  </g>
</svg>
